<svg version="1.2" xmlns="http://www.w3.org/2000/svg" viewBox="0 0 793 552" width="793" height="552">
	<title>undraw_secure_login_pdn4-svg</title>
	<style>
		.s0 { fill: #e6e6e6 } 
		.s1 { fill: #2f2e41 } 
		.s2 { fill: #3f3d56 } 
		.s3 { fill: #ffffff } 
		.s4 { fill: #ff0000 } 
		.s5 { fill: #ffb8b8 } 
	</style>
	<path id="Layer" class="s0" d="m158 551.7c-87.4 0-158-5.3-158-12 0-6.6 70.6-12 158-12 87.4 0 158 5.4 158 12 0 6.7-70.6 12-158 12z"/>
	<path id="Layer" class="s1" d="m120.8 122.4c27.5-11.7 61.7-4.3 95.2 0.9 0.3-6.3 4-13.8 0.1-18.2-4.8-5.3-4.4-10.8-1.5-16.4 7.4-14.2-3.2-29.4-13.9-42q-1.8-2.2-4-3.8-2.3-1.7-4.8-2.8-2.6-1-5.4-1.5-2.7-0.4-5.5-0.2l-19.8 1.4c-2.4 0.1-4.8 0.7-7 1.6-2.2 0.8-4.3 2.1-6.2 3.6-1.9 1.5-3.5 3.2-4.8 5.2-1.4 2-2.4 4.2-3.1 6.5-4.7 6.5-7.2 12.9-5.6 19.2-7.1 4.9-8.3 10.7-5.1 17.3q4 6.2-0.1 12.1-1.4 1.9-2.6 3.9-1.2 1.9-2.3 4-1 2.1-1.9 4.2-0.9 2.2-1.6 4.4z"/>
	<path id="Layer" class="s1" d="m774.2 477h-560.4c-2.5 0-4.9-0.5-7.2-1.5-2.3-0.9-4.4-2.3-6.1-4-1.7-1.8-3.1-3.9-4.1-6.1-0.9-2.3-1.4-4.8-1.4-7.2q304.7-35.4 598 0c0 2.4-0.5 4.9-1.4 7.2-1 2.2-2.4 4.3-4.1 6.1-1.7 1.7-3.8 3.1-6.1 4-2.3 1-4.7 1.5-7.2 1.5z"/>
	<path id="Layer" class="s2" d="m793 459.3l-598-1.1 69.3-116.6 0.3-0.6v-257c0-3.1 0.7-6.2 1.8-9.1 1.2-2.9 3-5.5 5.2-7.7 2.2-2.2 4.8-4 7.7-5.2 2.9-1.1 6-1.8 9.1-1.8h407.9c3.1 0 6.2 0.7 9.1 1.8 2.9 1.2 5.5 3 7.7 5.2 2.2 2.2 3.9 4.8 5.1 7.7 1.2 2.9 1.8 6 1.8 9.1v258.8z"/>
	<path id="Layer" class="s3" d="m287.9 76.8q-1.6 0-3 0.6-1.4 0.6-2.5 1.7-1.1 1.1-1.7 2.5-0.6 1.4-0.6 3v234.3q0 1.5 0.6 3 0.6 1.4 1.7 2.5 1.1 1.1 2.5 1.6 1.4 0.6 3 0.6h412.2q1.6 0 3-0.6 1.4-0.5 2.5-1.6 1.1-1.1 1.7-2.5 0.6-1.5 0.6-3v-234.3q0-1.6-0.6-3-0.6-1.4-1.7-2.5-1.1-1.1-2.5-1.7-1.4-0.6-3-0.6z"/>
	<path id="Layer" class="s1" d="m289.6 357.6q-0.5 0-1 0.1-0.4 0.2-0.8 0.4-0.4 0.3-0.7 0.6-0.3 0.4-0.5 0.8l-21.4 46.4q-0.3 0.8-0.3 1.7 0.1 0.8 0.5 1.5 0.5 0.7 1.2 1.1 0.8 0.4 1.6 0.4h449.1q0.9 0 1.6-0.4 0.8-0.4 1.2-1.1 0.5-0.8 0.5-1.6 0.1-0.9-0.3-1.7l-23.2-46.4q-0.2-0.4-0.5-0.7-0.4-0.4-0.8-0.6-0.3-0.3-0.8-0.4-0.4-0.1-0.9-0.1z"/>
	<path id="Layer" class="s3" d="m492.3 73c-2.7 0-4.9-2.3-4.9-5 0-2.8 2.2-5 4.9-5 2.8 0 5 2.2 5 5 0 2.7-2.2 5-5 5z"/>
	<path id="Layer" class="s1" d="m448.2 419.5q-0.5 0-1.1 0.2-0.5 0.1-0.9 0.5-0.4 0.3-0.8 0.8-0.3 0.4-0.4 0.9l-5.4 19.9q-0.2 0.8 0 1.5 0.1 0.8 0.6 1.4 0.5 0.6 1.2 1 0.7 0.3 1.4 0.3h101.9q0.8 0 1.5-0.4 0.7-0.3 1.2-1 0.5-0.6 0.6-1.4 0.1-0.8-0.2-1.6l-6.8-19.9q-0.2-0.5-0.5-0.9-0.3-0.4-0.7-0.7-0.5-0.3-1-0.5-0.5-0.1-1-0.1z"/>
	<path id="Layer" class="s1" d="m720 337.1v4.5h-455.7l0.3-0.6v-3.9h455.4z"/>
	<path id="Layer" class="s4" d="m707.3 154.8c-42.8 0-77.3-34.6-77.3-77.4 0-42.8 34.5-77.4 77.3-77.4 42.8 0 77.4 34.6 77.4 77.4 0 42.8-34.6 77.4-77.4 77.4z"/>
	<path id="Layer" fill-rule="evenodd" class="s3" d="m739.4 111.1h-64.1q-0.9 0-1.7-0.3-0.8-0.4-1.4-1-0.7-0.6-1-1.4-0.3-0.9-0.3-1.7v-38.7q0-0.9 0.3-1.7 0.3-0.8 1-1.4 0.6-0.7 1.4-1 0.8-0.3 1.7-0.3h64.1q0.9 0 1.7 0.3 0.8 0.3 1.4 1 0.6 0.6 1 1.4 0.3 0.8 0.3 1.7v38.7q0 0.8-0.3 1.7-0.4 0.8-1 1.4-0.6 0.6-1.4 1-0.8 0.3-1.7 0.3zm-64.1-43.1v38.7h64.1v-38.7z"/>
	<path id="Layer" fill-rule="evenodd" class="s3" d="m727.2 68h-39.8v-17.7c0-12.8 8.4-22.1 19.9-22.1 11.6 0 19.9 9.3 19.9 22.1zm-35.3-4.4h30.9v-13.3c0-10.4-6.4-17.7-15.5-17.7-9.1 0-15.4 7.3-15.4 17.7z"/>
	<path id="Layer" class="s3" d="m707.3 90.6c-2.4 0-4.4-1.9-4.4-4.4 0-2.4 2-4.4 4.4-4.4 2.5 0 4.5 2 4.5 4.4 0 2.5-2 4.4-4.5 4.4z"/>
	<path id="Layer" fill-rule="evenodd" class="s0" d="m653.3 247.1h-318.6q-1.2 0-2.3-0.4-1.1-0.5-1.9-1.3-0.8-0.8-1.3-1.9-0.4-1.1-0.4-2.3v-79q0-1.2 0.4-2.2 0.5-1.1 1.3-2 0.8-0.8 1.9-1.2 1.1-0.5 2.3-0.5h318.6q1.2 0 2.3 0.5 1.1 0.4 1.9 1.2 0.8 0.9 1.3 2 0.4 1 0.4 2.2v79q0 1.2-0.4 2.3-0.5 1.1-1.3 1.9-0.8 0.8-1.9 1.3-1.1 0.4-2.3 0.4zm-318.6-88.4q-0.7 0-1.4 0.2-0.6 0.3-1.1 0.8-0.5 0.5-0.8 1.2-0.3 0.6-0.3 1.3v79q0 0.8 0.3 1.4 0.3 0.7 0.8 1.2 0.5 0.4 1.1 0.7 0.7 0.3 1.4 0.3h318.6q0.7 0 1.4-0.3 0.6-0.3 1.1-0.7 0.5-0.5 0.8-1.2 0.3-0.6 0.3-1.4v-79q0-0.7-0.3-1.3-0.3-0.7-0.8-1.2-0.5-0.5-1.1-0.8-0.7-0.2-1.4-0.2z"/>
	<path id="Layer" class="s0" d="m384.2 222.7c-13.3 0-24-10.7-24-24 0-13.3 10.7-24 24-24 13.3 0 24 10.7 24 24 0 13.3-10.7 24-24 24z"/>
	<path id="Layer" class="s0" d="m439.7 182.7c-1.1 0-2.1 0.4-2.8 1.1-0.8 0.8-1.2 1.8-1.2 2.9 0 1 0.4 2.1 1.2 2.8 0.7 0.8 1.7 1.2 2.8 1.2h188.9c1 0 2-0.4 2.8-1.2 0.7-0.7 1.2-1.8 1.2-2.8 0-1.1-0.5-2.1-1.2-2.9-0.8-0.7-1.8-1.1-2.8-1.1z"/>
	<path id="Layer" class="s0" d="m439.7 206.7c-1.1 0-2.1 0.4-2.8 1.2-0.8 0.7-1.2 1.8-1.2 2.8 0 1.1 0.4 2.1 1.2 2.8 0.7 0.8 1.7 1.2 2.8 1.2h81.3c1 0 2.1-0.4 2.8-1.2 0.8-0.7 1.2-1.7 1.2-2.8 0-1-0.4-2.1-1.2-2.8-0.7-0.8-1.8-1.2-2.8-1.2z"/>
	<path id="Layer" class="s5" d="m263.5 208.3l-58.9 31.3-0.7-26.1c19.2-3.2 37.5-8.7 54.4-17.8l6.2-15.3c0.6-1.6 1.7-3.1 3.1-4.2 1.4-1.1 3.1-1.8 4.9-2.1 1.7-0.3 3.5-0.1 5.2 0.6 1.7 0.6 3.2 1.7 4.3 3.1 0.8 1 1.5 2.1 1.8 3.3 0.4 1.3 0.6 2.6 0.5 3.9-0.1 1.3-0.4 2.5-0.9 3.7-0.6 1.2-1.4 2.2-2.3 3.1z"/>
	<path id="Layer" class="s1" d="m119.6 389.1q-0.3-1.1-0.4-2.4-0.1-1.2 0.1-2.4 0.2-1.2 0.7-2.4 0.4-1.1 1.1-2.1l12.9-19.9c1.5-2.3 3.5-4.3 5.7-6 2.3-1.6 4.8-2.8 7.5-3.5 2.7-0.7 5.5-0.9 8.2-0.6 2.8 0.3 5.5 1.1 7.9 2.4-5.4 9.2-4.6 17.3 1.9 24.4q-3.8 1.9-7.5 4-3.6 2.1-7.1 4.5-3.5 2.4-6.9 5-3.3 2.7-6.4 5.6c-1.5 1-3.3 1.6-5.1 1.9-1.9 0.2-3.7 0-5.4-0.7-1.8-0.6-3.3-1.6-4.6-3-1.2-1.4-2.1-3-2.6-4.8z"/>
	<path id="Layer" class="s1" d="m266.2 363.2q-1.5 2.4-3.5 4.4-2 2-4.5 3.4-2.5 1.4-5.3 2.2-2.7 0.7-5.6 0.7l-85.9 0.7-3.8-21.6 38.1-11.2-32.1-24.6 35.1-41 63.6 59.3c1.9 1.7 3.4 3.7 4.6 6 1.1 2.2 1.9 4.6 2.3 7.1 0.3 2.5 0.2 5.1-0.3 7.6-0.5 2.4-1.4 4.8-2.7 7z"/>
	<path id="Layer" class="s1" d="m148 511h-20.2c-18.1-123.9-36.5-248.1 17.9-294.5l64.1 10.5-8.2 54.4-35.8 41z"/>
	<path id="Layer" class="s1" d="m165.6 539.1q-1.1 0.3-2.4 0.4-1.2 0.1-2.4-0.1-1.2-0.2-2.3-0.6-1.2-0.5-2.2-1.2l-21.9-2.9c-2.3-1.5-4.3-3.4-6-5.7-1.6-2.3-2.8-4.8-3.5-7.5-0.7-2.7-0.9-5.5-0.6-8.2 0.3-2.8 1.1-5.5 2.4-7.9 9.2 5.4 17.4 4.6 24.4-1.9 5 10.1 13.2 9.4 21.1 17.9 1 1.5 1.7 3.3 1.9 5.1 0.2 1.9 0 3.7-0.6 5.4-0.7 1.8-1.7 3.3-3.1 4.6-1.3 1.2-3 2.1-4.8 2.6z"/>
	<path id="Layer" class="s5" d="m195.7 133.8l-37.3-9c6.2-12.7 6.7-26.8 3.7-41.7l25.4-0.8c0.8 18.6 3.2 36 8.2 51.5z"/>
	<path id="Layer" class="s4" d="m203.4 255.1c-29.7 20.2-50.7 0.7-66.7-29.5 2.2-18.5-1.4-40.6-8.1-64.6-1.4-5.2-1.9-10.7-1.4-16.1 0.5-5.5 2.1-10.7 4.5-15.6 2.5-4.9 5.9-9.2 9.9-12.9 4.1-3.6 8.8-6.5 13.9-8.4l35.1 14.7c29.8 24.3 35.7 50.6 24.5 78.4z"/>
	<path id="Layer" class="s5" d="m127.8 152.4l-29.8 15.7 52.9 31.3 7.4 18.2c0.5 1.2 0.7 2.5 0.7 3.8 0 1.3-0.3 2.6-0.9 3.8-0.5 1.2-1.3 2.2-2.2 3.1-1 0.9-2.2 1.6-3.4 2-1.4 0.5-2.9 0.6-4.4 0.4-1.4-0.2-2.9-0.7-4.1-1.5-1.2-0.8-2.3-2-3-3.2-0.7-1.3-1.2-2.8-1.2-4.3l-0.8-12.6-67.3-22.2q-1.7-0.6-3.2-1.5-1.5-0.9-2.8-2.2-1.3-1.2-2.3-2.8-0.9-1.5-1.6-3.1c-0.5-1.7-0.8-3.4-0.9-5.1 0-1.7 0.2-3.5 0.8-5.1 0.5-1.6 1.3-3.2 2.3-4.6 1.1-1.4 2.3-2.6 3.8-3.5l54.1-37.2z"/>
	<path id="Layer" class="s4" d="m157.6 155.4c-12.4-5.5-23.7 0.5-38 5.2l-2.2-39.5c14.2-7.6 27.7-9.6 40.2-3.7z"/>
	<path id="Layer" class="s5" d="m172.5 101.9c-13.1 0-23.8-10.6-23.8-23.8 0-13.2 10.7-23.8 23.8-23.8 13.2 0 23.8 10.6 23.8 23.8 0 13.2-10.6 23.8-23.8 23.8z"/>
	<path id="Layer" class="s1" d="m201 75.1c-23.6 2.3-41.5-1.6-53-12.5v-8.9h51z"/>
</svg>