<svg version="1.2" xmlns="http://www.w3.org/2000/svg" viewBox="0 0 532 532" width="532" height="532">
	<title>undraw_pic_profile_re_7g2h-svg</title>
	<style>
		.s0 { fill: #a0616a } 
		.s1 { fill: #2f2e41 } 
		.s2 { fill: #ff0000 } 
		.s3 { fill: #3f3d56 } 
	</style>
	<g id="Layer">
		<g id="Layer">
			<path id="Layer" class="s0" d="m270.8 347.3c-47.8 0-86.4-38.6-86.4-86.4 0-47.7 38.6-86.3 86.4-86.3 47.7 0 86.3 38.6 86.3 86.3 0 47.8-38.6 86.4-86.3 86.4z"/>
			<path id="Layer" class="s0" d="m199.3 366.6l18-46 93-14 10 101.8-94 2-27-43.8z"/>
		</g>
		<path id="Layer" class="s1" d="m357.9 276.9c-1.1 4.5-3.3 15.1-6.9 15.2-2.9 0-5.6-46.3-2.7-54 3.3-8.8-5.4-20-12-25.7-11.8-10.3-38 11.8-64.7 1.8-0.7-0.3-0.5-0.2-8.9-3.6-25.9-10.3-27.3-10.6-28.8-10.8-12.5-1.2-27.8 9.1-34.1 21.6-6.5 13-1.1 24.2-7.2 55.7-0.7 3.6-1.8 8.9-3.6 8.9-3.2 0.2-6.3-17-7.2-21.5-3.4-18.9-6.7-37.1 0-57.5 0.8-2.2 5.3-10.5 14.4-26.9 13.1-23.7 19.7-35.6 21.6-37.7 13.6-15.4 38.4-29.3 59.2-23.4 10.6 3 8.7 7.9 21.6 12.6 23 8.4 43-1.9 46.7 5.4 1.9 3.8-3.5 7-3.6 14.3-0.2 12.7 15.8 16.3 25.1 28.8 5 6.7 13.6 6.8-8.9 96.8q0 0 0 0z"/>
	</g>
	<path id="Layer" class="s2" d="m464.9 442.6q-5.2 5.9-10.8 11.5c-50.2 50.2-117 77.9-188.1 77.9-61.4 0-119.6-20.7-166.7-58.7q-0.1 0-0.1-0.1-9.4-7.6-18.2-16 0.2-1.4 0.4-2.7c0.8-5.8 1.7-11.3 2.7-16.4 8.4-41.7 118.3-85.5 121.1-86.6q0.1-0.1 0.1-0.1c0 0 14.1 52.2 74.7 51.5 41.3-0.5 33.3-51.5 33.3-51.5q0 0 1.4 0.3c11.9 2.6 94.7 20.8 127.4 45.6 9.9 7.5 17 23.6 22.2 42.8q0.3 1.3 0.6 2.5z"/>
	<path id="Layer" fill-rule="evenodd" class="s3" d="m532 266c0 65.8-23.7 127.9-67.1 176.6q-5.2 5.9-10.8 11.5c-50.2 50.2-117 77.9-188.1 77.9-61.4 0-119.6-20.7-166.8-58.7q0 0 0-0.1-9.4-7.6-18.2-16-1.5-1.6-3.1-3.1-6.6-6.6-12.6-13.5c-42.2-48.4-65.3-109.7-65.3-174.6 0-71 27.7-137.8 77.9-188.1 50.3-50.2 117-77.9 188.1-77.9 71.1 0 137.9 27.7 188.1 77.9 50.2 50.3 77.9 117.1 77.9 188.1zm-2 0c0-145.6-118.4-264-264-264-145.6 0-264 118.4-264 264 0 65.7 24.1 125.8 63.9 172q7.4 8.6 15.5 16.5c9.6 9.5 20 18.2 31 26.1q11.5 8.3 23.9 15.3 2.3 1.3 4.7 2.6c10.9 5.9 22.1 11 33.8 15.3 28.4 10.5 59.2 16.2 91.2 16.2 33.2 0 65-6.2 94.3-17.4q11.3-4.3 22.1-9.7c20.5-10.1 39.5-22.7 56.5-37.6 9-7.8 17.5-16.2 25.4-25.2 40.9-46.5 65.7-107.4 65.7-174.1z"/>
</svg>